<svg width="206" height="46" viewBox="0 0 206 46" fill="none" xmlns="http://www.w3.org/2000/svg">
<path d="M102.755 2.63552L108.493 17.2864C108.941 18.4118 110.04 19.1689 111.261 19.1279L116.51 19.0052L116.897 19.5576C115.757 20.8877 115.595 22.8725 116.632 24.3662C117.243 25.2461 118.158 25.7986 119.135 25.9623C119.827 26.085 120.539 26.0237 121.21 25.7577L121.862 26.6989C121.862 26.7194 121.882 26.7194 121.882 26.7194L133.5 43.4164C133.806 43.8461 134.253 44.1326 134.742 44.2144C135.149 44.2963 135.576 44.2349 135.983 44.0098C136.837 43.5392 137.224 42.5365 136.858 41.6157L131.12 26.9649C130.672 25.8395 129.573 25.0824 128.352 25.1233L123.103 25.2461L122.716 24.6936C123.856 23.3636 124.018 21.3788 122.981 19.885C121.923 18.3913 120.03 17.8593 118.403 18.4936L117.751 17.5524C117.751 17.5319 117.731 17.5319 117.731 17.5319L106.092 0.834856C105.523 0.0368355 104.485 -0.229171 103.63 0.241456C102.776 0.712084 102.389 1.73519 102.755 2.63552ZM124.364 27.0877L128.373 27.0058C128.454 27.0058 128.515 27.0058 128.576 27.0263C128.943 27.0877 129.248 27.3332 129.37 27.6811L135.108 42.3319C135.128 42.3524 135.128 42.3728 135.128 42.3728C135.108 42.3933 135.067 42.4138 135.026 42.4138C135.026 42.4138 135.006 42.3933 135.006 42.3728L124.364 27.0877ZM118.626 20.458C119.074 20.1306 119.644 20.0283 120.152 20.1306C120.661 20.2124 121.129 20.5194 121.475 20.9695C122.126 21.8903 121.902 23.1794 120.966 23.8138C120.03 24.4481 118.769 24.2435 118.138 23.3022C117.487 22.3814 117.711 21.1128 118.626 20.458ZM104.464 1.91935C104.485 1.89888 104.525 1.87842 104.566 1.87842C104.566 1.87842 104.587 1.89888 104.587 1.91935L115.228 17.184L111.22 17.2659C110.793 17.2864 110.386 16.9999 110.223 16.5906L104.485 1.96027C104.464 1.93981 104.464 1.91935 104.464 1.91935Z" fill="white"/>
<path d="M119.258 21.3779C119.054 21.5211 118.932 21.7462 118.871 21.9713C118.83 22.2168 118.891 22.4624 119.013 22.667C119.156 22.8716 119.38 22.9944 119.603 23.0558C119.848 23.0967 120.092 23.0353 120.295 22.9125C120.499 22.7693 120.621 22.5442 120.682 22.3191C120.723 22.0736 120.662 21.828 120.539 21.6234C120.397 21.4188 120.173 21.296 119.949 21.2346C119.726 21.1733 119.461 21.2346 119.258 21.3779Z" fill="white"/>
<path d="M103.264 45.0111C103.06 45.0111 102.836 44.9497 102.674 44.8065C102.246 44.4791 102.165 43.8447 102.49 43.415L116.978 24.2216C117.303 23.7919 117.934 23.7101 118.362 24.0375C118.789 24.3649 118.87 24.9992 118.545 25.4289L104.037 44.6223C103.854 44.8678 103.549 45.0111 103.264 45.0111Z" fill="white"/>
<path d="M121.617 20.724C121.414 20.724 121.19 20.6626 121.027 20.5194C120.6 20.192 120.518 19.5577 120.844 19.128L135.006 0.384711C135.331 -0.044992 135.962 -0.12684 136.39 0.200553C136.817 0.527946 136.898 1.16227 136.573 1.59197L122.411 20.3352C122.207 20.5808 121.922 20.724 121.617 20.724Z" fill="white"/>
<g opacity="0.3">
<path opacity="0.3" d="M129.736 26.4922L135.474 43.2915L123.388 26.4922H129.736Z" fill="white"/>
</g>
<g opacity="0.3">
<path opacity="0.3" d="M104.077 0.977539L116.611 17.6132L110.507 18.0838L108.879 16.2218L104.077 0.977539Z" fill="white"/>
</g>
<path d="M7.32513 13.5404H0V32.6724H7.32513C10.2959 32.6724 12.5951 31.8335 14.223 30.176C15.8508 28.5186 16.6647 26.1655 16.6647 23.0962C16.6647 20.0473 15.8508 17.6942 14.223 16.0163C12.5951 14.3793 10.2959 13.5404 7.32513 13.5404ZM11.1912 27.8434C10.2755 28.9278 8.93258 29.4803 7.12165 29.4803H3.96778V16.7325H7.12165C8.91224 16.7325 10.2755 17.2849 11.1912 18.3694C12.1068 19.4539 12.5545 21.05 12.5545 23.1166C12.5545 25.1833 12.1068 26.7589 11.1912 27.8434ZM34.9164 22.912C35.5879 21.9912 35.9135 20.8453 35.9135 19.4539C35.9135 17.5714 35.303 16.1186 34.0822 15.0955C32.8613 14.0519 31.1725 13.5404 29.0156 13.5404H20.6528V32.6724H24.5595V25.347H28.1203L32.5765 32.6724H37.0326L32.0271 24.8968C33.2886 24.508 34.245 23.8328 34.9164 22.912ZM31.0504 21.6229C30.501 22.0731 29.6668 22.2981 28.507 22.2981H24.5799V16.7325H28.507C29.6464 16.7325 30.501 16.9575 31.0504 17.4077C31.5998 17.8579 31.8643 18.5536 31.8643 19.5153C31.8643 20.4566 31.5998 21.1727 31.0504 21.6229ZM53.0258 14.4407C51.6625 13.6427 50.0347 13.2539 48.1831 13.2539C46.3314 13.2539 44.7036 13.6427 43.32 14.4407C41.9363 15.2387 40.8783 16.3641 40.1458 17.8374C39.4133 19.3107 39.047 21.0704 39.047 23.0962C39.047 25.1219 39.4133 26.8816 40.1458 28.3549C40.8783 29.8282 41.9363 30.9741 43.32 31.7516C44.7036 32.5496 46.3111 32.9384 48.1831 32.9384C50.0347 32.9384 51.6625 32.5496 53.0258 31.7516C54.3891 30.9536 55.4471 29.8282 56.1796 28.3549C56.9122 26.8816 57.2784 25.1219 57.2784 23.0962C57.2784 21.0704 56.9122 19.3107 56.1796 17.8374C55.4471 16.3641 54.3891 15.2387 53.0258 14.4407ZM51.866 27.9866C50.991 29.112 49.7702 29.6849 48.1831 29.6849C46.5756 29.6849 45.3344 29.112 44.4594 27.9866C43.5845 26.8612 43.1572 25.2242 43.1572 23.0962C43.1572 20.9681 43.5845 19.3516 44.4594 18.2057C45.3344 17.0803 46.5756 16.5074 48.1831 16.5074C49.7702 16.5074 51.0114 17.0803 51.866 18.2057C52.7409 19.3311 53.1682 20.9681 53.1682 23.0962C53.1886 25.2447 52.7409 26.8612 51.866 27.9866ZM74.0041 24.6104L74.1262 28.0071H74.0652L72.4374 24.7536L65.804 13.5404H61.2869V32.6724H64.8477V21.6024L64.7256 18.2057H64.746L66.3738 21.4183L73.0071 32.6724H77.5446V13.5404H73.9838V24.6104H74.0041ZM86.4772 24.5899H94.5552V21.5206H86.4772V16.7529H96.7324V13.5404H82.5094V32.6724H97.1393V29.4599H86.4772V24.5899ZM163.106 15.1569C161.885 14.0928 160.156 13.5404 157.958 13.5404H150.002V32.6724H153.97V25.7153H157.958C160.156 25.7153 161.885 25.1833 163.106 24.1193C164.327 23.0552 164.937 21.582 164.937 19.679C164.958 17.7351 164.327 16.2209 163.106 15.1569ZM160.074 21.8684C159.505 22.3595 158.589 22.6051 157.368 22.6051H153.97V16.7325H157.368C158.589 16.7325 159.484 16.978 160.074 17.4486C160.644 17.9397 160.929 18.6559 160.929 19.6585C160.929 20.6407 160.644 21.3773 160.074 21.8684ZM182.823 22.912C183.494 21.9912 183.82 20.8453 183.82 19.4539C183.82 17.5714 183.21 16.1186 181.989 15.0955C180.768 14.0519 179.079 13.5404 176.922 13.5404H168.559V32.6724H172.466V25.347H176.027L180.483 32.6724H184.939L179.934 24.8968C181.195 24.508 182.151 23.8328 182.823 22.912ZM178.957 21.6229C178.408 22.0731 177.573 22.2981 176.413 22.2981H172.486V16.7325H176.413C177.553 16.7325 178.408 16.9575 178.957 17.4077C179.506 17.8579 179.771 18.5536 179.771 19.5153C179.771 20.4566 179.506 21.1727 178.957 21.6229ZM204.106 17.8579C203.374 16.3846 202.316 15.2387 200.953 14.4612C199.589 13.6631 197.962 13.2744 196.11 13.2744C194.258 13.2744 192.63 13.6631 191.247 14.4612C189.863 15.2592 188.805 16.3846 188.073 17.8579C187.34 19.3311 186.974 21.0909 186.974 23.1166C186.974 25.1424 187.34 26.9021 188.073 28.3754C188.805 29.8486 189.863 30.9945 191.247 31.7721C192.63 32.5701 194.238 32.9589 196.11 32.9589C197.962 32.9589 199.589 32.5701 200.953 31.7721C202.316 30.9741 203.374 29.8486 204.106 28.3754C204.839 26.9021 205.205 25.1424 205.205 23.1166C205.205 21.0704 204.839 19.3311 204.106 17.8579ZM199.793 27.9866C198.918 29.112 197.697 29.6849 196.11 29.6849C194.502 29.6849 193.261 29.112 192.386 27.9866C191.511 26.8612 191.084 25.2242 191.084 23.0962C191.084 20.9681 191.511 19.3516 192.386 18.2057C193.261 17.0803 194.502 16.5074 196.11 16.5074C197.697 16.5074 198.938 17.0803 199.793 18.2057C200.668 19.3311 201.095 20.9681 201.095 23.0962C201.095 25.2447 200.668 26.8612 199.793 27.9866Z" fill="white"/>
</svg>
